<svg class="svg-icon" style="width: 1em; height: 1em;vertical-align: middle;fill: currentColor;overflow: hidden;" viewBox="0 0 1024 1024" version="1.1" xmlns="http://www.w3.org/2000/svg"><path d="M703.698508 64.017012 703.698508 127.96137 127.91788 127.96137 127.91788 895.505487 767.527233 895.505487 767.527233 575.785745 831.526849 575.785745 831.526849 959.482591 64.027757 959.482591 64.027757 64.017012Z"  /><path d="M191.533756 255.490905l383.739824 0 0 64.46829-383.739824 0 0-64.46829Z"  /><path d="M191.533756 383.319246l383.739824 0 0 64.46829-383.739824 0 0-64.46829Z"  /><path d="M191.533756 511.750313l191.869912 0 0 64.46829-191.869912 0 0-64.46829Z"  /><path d="M191.533756 639.144772l191.869912 0 0 64.46829-191.869912 0 0-64.46829Z"  /><path d="M458.388477 693.727924 855.373976 114.3954 960.726419 186.655144 563.74092 765.986645 438.929286 835.67789Z"  /></svg>